Coordinates
version=1
nRows=9
nColumns=36
inDegrees=yes

Units are S.I. units (second, meters, Newtons, ...)
If the header above contains a line with 'inDegrees', this indicates whether rotational values are in degrees (yes) or radians (no).

endheader
time	pelvis_tilt	pelvis_list	pelvis_rotation	pelvis_tx	pelvis_ty	pelvis_tz	hip_flexion_r	hip_adduction_r	hip_rotation_r	knee_angle_r	knee_angle_r_beta	ankle_angle_r	subtalar_angle_r	mtp_angle_r	hip_flexion_l	hip_adduction_l	hip_rotation_l	knee_angle_l	knee_angle_l_beta	ankle_angle_l	subtalar_angle_l	mtp_angle_l	lumbar_extension	lumbar_bending	lumbar_rotation	arm_flex_r	arm_add_r	arm_rot_r	elbow_flex_r	pro_sup_r	arm_flex_l	arm_add_l	arm_rot_l	elbow_flex_l	pro_sup_l
      2.75000000	    -11.71203975	      0.49353884	      2.58258515	      0.01275432	      1.08748779	      0.06110708	     27.49965005	      3.41294507	      9.93961391	     47.39966393	      0.82728020	     25.47602396	    -24.58418671	     -7.49999987	     28.73733065	     -3.00920537	     -4.08861282	     51.30191302	      0.89538729	     25.97856479	     -7.49747849	     -7.49999987	     -1.70575101	      0.31785650	      2.40574646	    -11.12720266	    -12.48474887	      6.99319516	     86.62358580	     82.38332093	     -3.55975743	    -19.31066089	     21.37942801	    109.90747275	    101.37280866
      2.76666670	    -11.14286653	      0.50120875	      3.02774702	      0.01849929	      1.07647886	      0.06134845	     28.80479827	      3.66552294	      9.46992696	     52.66046824	      0.91909856	     27.71480199	    -25.42563367	     -7.49999987	     30.32330596	     -3.65294548	     -4.08503742	     56.47036127	      0.98559373	     28.22827737	     -7.22247752	     -7.49999987	     -3.18939682	      0.17619008	     -0.10610384	     -7.09764422	    -12.47710891	     11.50860843	     84.81876387	     84.89655287	     -5.69054340	    -17.86635105	     17.71688384	    110.03890851	    102.84172565
      2.78333330	    -10.53535857	      0.57332410	      3.49952588	      0.02520876	      1.06591064	      0.05952449	     29.56955773	      3.72786688	      8.96862406	     56.96471510	      0.99422184	     29.63994767	    -26.05271464	     -7.49999987	     31.39340552	     -4.00416916	     -3.82356641	     60.93284821	      1.06347882	     29.76954890	     -6.74455305	     -7.49999987	     -4.52330832	      0.06552462	     -0.05212632	     -5.60932265	    -11.75686758	     12.25844576	     83.98716602	     82.18557356	     -4.54925562	    -16.86652175	     18.14251142	    107.86241596	     98.55322680
      2.80000000	     -9.89674933	      0.59124777	      4.02413706	      0.03655687	      1.06013131	      0.05874284	     29.31669406	      3.92824777	      8.59061327	     59.65904945	      1.04124684	     31.81823785	    -25.32205851	     -7.49999987	     31.46303758	     -4.29418740	     -3.42058896	     63.85088446	      1.11440816	     31.12317041	     -5.88702419	     -7.49999987	     -5.54541458	      0.04578184	     -1.64566050	     -2.55826657	    -10.95364570	     14.85815028	     81.18606681	     85.04581492	     -5.07716560	    -15.37379884	     15.75134373	    105.77976080	    101.23766610
      2.81666670	     -9.27137759	      0.60955704	      4.59079140	      0.04403566	      1.05237743	      0.05766367	     28.64315920	      4.13728695	      8.26821653	     61.48398390	      1.07309796	     33.33366124	    -24.69222879	     -7.49999987	     30.91877953	     -4.43955005	     -3.18531707	     65.60187654	      1.14496874	     31.80624846	     -5.09217962	     -7.49999987	     -6.37157602	      0.01326116	     -2.13984721	     -0.41790271	     -9.91169139	     15.84896157	     79.10705460	     86.05040168	     -4.13362924	    -14.31327880	     14.95605668	    103.60552002	    101.77420605
      2.83333330	     -8.81860626	      0.60026604	      4.95031400	      0.05261517	      1.04331170	      0.05549002	     27.74279059	      4.33282283	      8.05712323	     62.50071628	      1.09084328	     34.77281632	    -24.00465412	     -7.49999987	     29.68443358	     -4.30143082	     -2.99323381	     66.03159637	      1.15246877	     33.00605015	     -4.09159479	     -7.49999987	     -6.67592629	      0.05725488	     -1.95628258	      1.13488278	     -9.16306595	     16.14456645	     78.52013631	     85.99561667	     -2.60194964	    -13.38693562	     14.60414126	    102.62930321	    101.55377566
      2.85000000	     -8.50855460	      0.61723035	      5.23054766	      0.06158142	      1.04196929	      0.05501678	     26.57370649	      4.41064369	      7.75822444	     62.69739754	      1.09427602	     35.98656152	    -23.32899573	     -7.49999987	     28.32322244	     -4.07496157	     -2.80841980	     65.59499303	      1.14484860	     33.78261941	     -3.62625044	     -7.49999987	     -6.68386926	      0.10041792	     -1.76135559	      2.50725057	     -8.65473613	     16.40577981	     79.22030259	     86.11264066	     -1.20713902	    -12.46254389	     14.10527949	    103.52315033	    101.35655275
      2.86666670	     -8.48217103	      0.66181734	      5.17016594	      0.07357537	      1.04422484	      0.05106150	     24.97773338	      4.22125762	      7.64029556	     61.71147344	      1.07706840	     36.42501204	    -22.22516530	     -7.49999987	     26.45428834	     -3.61114676	     -2.79322173	     63.98507069	      1.11675016	     34.55466004	     -3.02406020	     -7.49999987	     -6.08869810	      0.15559979	     -1.82866201	      3.67049490	     -8.67785889	     17.05237354	     81.82206005	     86.27857682	      0.42405178	    -12.68996098	     13.97515659	    106.46221624	    101.07717590
      2.88333330	     -8.58243501	      0.68058288	      4.78024874	      0.08481545	      1.05161301	      0.05171228	     23.08332111	      4.03669364	      7.75312343	     59.19126650	      1.03308249	     36.41318319	    -21.77676921	     -7.49999987	     24.29298528	     -3.18183109	     -2.75234620	     61.22111400	      1.06851001	     34.53365629	     -2.39913465	     -7.49999987	     -5.36586158	      0.16751295	     -1.72789698	      4.54615685	     -9.00888724	     17.61913483	     86.25602617	     86.45179928	      1.21501123	    -13.06201851	     13.56460674	    111.35209397	    100.61120626
